<?xml version="1.0" standalone="no"?>
<!DOCTYPE svg PUBLIC "-//W3C//DTD SVG 20010904//EN"
 "http://www.w3.org/TR/2001/REC-SVG-20010904/DTD/svg10.dtd">
<svg version="1.0" xmlns="http://www.w3.org/2000/svg"
 width="576.000000pt" height="576.000000pt" viewBox="0 0 576.000000 576.000000"
 preserveAspectRatio="xMidYMid meet">
<metadata>
Created by potrace 1.14, written by Peter Selinger 2001-2017
</metadata>
<g transform="translate(0.000000,576.000000) scale(0.100000,-0.100000)"
fill="#000000" stroke="none">
<path d="M2369 4942 c-96 -32 -198 -117 -236 -198 -17 -34 -18 -35 -63 -27
-267 45 -490 -132 -493 -392 -1 -44 2 -92 6 -107 7 -26 5 -28 -25 -28 -81 0
-203 -62 -267 -135 -121 -138 -134 -361 -31 -509 l39 -55 -34 -21 c-49 -30
-110 -103 -142 -169 -34 -72 -44 -208 -20 -289 31 -103 115 -201 215 -251 l43
-22 -51 -56 c-54 -59 -93 -127 -116 -202 -19 -62 -18 -195 2 -262 57 -194 247
-348 429 -349 50 0 50 0 78 -50 49 -88 170 -242 263 -335 292 -293 658 -501
986 -560 121 -21 350 -17 443 9 88 24 231 98 302 156 174 140 330 419 408 729
57 224 86 560 66 757 -11 111 -11 118 8 138 27 30 68 114 80 166 16 70 14 192
-4 218 -10 13 -38 28 -73 37 -103 28 -162 49 -162 57 0 5 20 44 45 87 59 106
108 226 149 368 59 205 57 347 -6 465 -50 93 -151 182 -241 212 -9 3 -21 16
-26 29 -26 69 -58 121 -95 158 -92 94 -189 133 -318 128 l-78 -3 -28 45 c-106
167 -343 231 -525 141 l-61 -31 -50 50 c-28 28 -78 63 -115 81 -85 40 -214 49
-302 20z m1342 -1638 c32 -35 33 -36 9 -30 -73 18 -101 19 -120 1 -22 -20 -26
-55 -10 -84 6 -11 35 -26 75 -36 l66 -18 -78 -37 c-43 -20 -98 -50 -123 -65
-39 -25 -55 -30 -115 -30 -64 0 -75 3 -134 39 -35 21 -93 51 -129 67 l-66 27
57 17 c72 21 89 38 85 83 l-3 36 105 13 c58 8 148 22 200 32 136 27 141 26
181 -15z m-694 -41 c9 -4 -48 -25 -130 -49 -80 -23 -154 -47 -164 -52 -10 -5
-35 -12 -56 -16 -61 -11 -87 -27 -107 -66 l-18 -35 -207 -33 c-114 -18 -209
-31 -212 -28 -11 10 60 107 113 155 30 27 78 61 107 74 49 23 158 51 237 61
47 6 418 -4 437 -11z m64 -203 c92 -22 164 -55 184 -83 24 -35 18 -89 -20
-164 -69 -139 -150 -181 -323 -170 -145 9 -223 65 -273 197 -13 32 -22 81 -23
117 -1 52 3 65 23 87 27 29 51 33 81 14 16 -10 34 -9 97 9 87 23 132 22 254
-7z m852 -77 c46 -98 97 -255 97 -298 0 -28 -18 -34 -130 -42 -127 -9 -192 8
-246 63 -92 95 -132 234 -81 282 40 37 200 90 278 91 36 1 36 1 82 -96z m239
68 c31 -28 33 -33 32 -93 -1 -60 -34 -171 -54 -183 -5 -3 -14 14 -20 37 -6 24
-28 87 -49 141 -33 84 -36 97 -21 97 10 0 23 7 30 15 19 23 46 18 82 -14z
m-1607 -168 c10 -56 53 -141 93 -185 65 -72 165 -108 302 -108 100 0 178 19
229 54 36 26 43 34 130 161 26 39 60 77 75 84 26 14 28 13 61 -20 19 -19 60
-72 92 -119 93 -135 161 -167 342 -156 58 3 117 7 131 8 l25 3 3 -160 c5 -262
-26 -483 -99 -712 -120 -376 -323 -606 -601 -680 -87 -23 -296 -23 -404 0
-419 89 -888 431 -1128 822 -72 117 -69 115 -144 115 -36 0 -83 5 -106 12 -98
28 -193 114 -237 214 -17 37 -22 69 -23 135 0 77 3 92 32 150 39 79 98 141
166 176 43 22 65 26 140 27 l89 1 96 -228 c53 -126 103 -233 111 -237 37 -20
44 3 51 172 4 90 11 188 14 218 7 60 42 209 53 227 4 7 107 22 242 36 129 14
240 25 246 26 7 0 15 -16 19 -36z"/>
<path d="M3004 2992 c-32 -26 -44 -55 -44 -112 0 -59 18 -100 53 -119 33 -18
62 -7 87 33 25 42 27 130 4 166 -35 53 -64 62 -100 32z m51 -72 c0 -18 -6 -26
-23 -28 -13 -2 -25 3 -28 12 -10 26 4 48 28 44 17 -2 23 -10 23 -28z"/>
<path d="M3730 2982 c-54 -54 -47 -171 12 -215 23 -17 32 -19 53 -9 79 36 87
184 13 236 -32 22 -45 20 -78 -12z m64 -55 c9 -15 7 -21 -8 -32 -35 -26 -74
13 -44 43 16 16 38 12 52 -11z"/>
<path d="M3372 2608 c-6 -6 -12 -16 -12 -22 0 -5 34 -77 75 -160 106 -215 127
-316 72 -345 -14 -8 -56 -11 -112 -9 l-90 3 -3 -26 c-5 -40 20 -52 117 -57
104 -5 151 11 181 60 44 73 17 201 -88 410 -66 131 -81 153 -102 156 -14 2
-31 -3 -38 -10z"/>
<path d="M1535 2470 c-22 -25 -17 -85 17 -185 19 -57 28 -72 50 -79 41 -14 78
14 78 59 0 44 -34 170 -55 201 -19 30 -65 32 -90 4z"/>
<path d="M2894 1736 c-13 -34 3 -52 86 -93 100 -50 165 -68 299 -83 176 -19
325 11 405 81 50 44 64 73 46 94 -20 24 -49 17 -95 -23 -56 -50 -97 -62 -226
-69 -149 -8 -290 21 -419 87 -46 23 -88 26 -96 6z"/>
</g>
</svg>
